<?xml version="1.0" encoding="utf-8"?>
<!-- Svg Vector Icons : http://www.onlinewebfonts.com/icon -->
<!DOCTYPE svg PUBLIC "-//W3C//DTD SVG 1.1//EN" "http://www.w3.org/Graphics/SVG/1.1/DTD/svg11.dtd">
<svg version="1.1" xmlns="http://www.w3.org/2000/svg" xmlns:xlink="http://www.w3.org/1999/xlink" x="0px" y="0px" viewBox="0 0 1000 1000" enable-background="new 0 0 1000 1000" xml:space="preserve">
<metadata> Svg Vector Icons : http://www.onlinewebfonts.com/icon </metadata>
<g><path d="M990,501.9c0,0.4-0.1,0.8-0.1,1.2c0,0.2,0,0.4-0.1,0.6c0,0.3-0.1,0.6-0.1,0.9c0,0.3-0.1,0.7-0.1,1c0,0,0,0.1,0,0.1c-1.2,7.8-4.8,15-10.2,20.6c-10.3,12.5-21.5,24.2-32.8,35.7c-61.1,62-131.1,117.3-207.8,157.4c-49,25.6-101.4,46.3-155.7,56.3c-59.7,10.9-119.5,10.4-179-2.5c-47.1-10.3-92.1-27.7-135-49.8l1.4-1.4l122.5-80.6C423,663.1,460,676.1,500,676.1c101.5,0,183.7-82.3,183.7-183.7c0-13.6-1.6-26.7-4.4-39.4l161.9-106.5c10.7,8.1,21.3,16.3,31.7,24.8c37.8,30.8,75,64.6,106.3,102.5c5.5,5.6,9,12.9,10.2,20.6c0,0,0,0.1,0,0.1c0.1,0.3,0.1,0.7,0.1,1c0,0.3,0.1,0.6,0.1,0.9c0,0.2,0,0.4,0.1,0.6c0,0.4,0.1,0.8,0.1,1.2c0,0.6,0.1,1.2,0.1,1.9C990,500.6,990,501.3,990,501.9z M500,584.2c-6,0-11.9-0.6-17.6-1.7l107.3-70.6C580.8,553.2,544,584.2,500,584.2z M903,258.9l-796,520.4l-0.3,0.2l0,0c-3.6,2.4-7.9,3.8-12.6,3.8c-12.7,0-23-10.3-23-23c0-8,4.1-15.1,10.4-19.2l0,0l796-520.4l0.3-0.2l0,0c3.6-2.4,7.9-3.8,12.6-3.8c12.7,0,23,10.3,23,23C913.4,247.7,909.3,254.8,903,258.9L903,258.9z M500,400.5c8.8,0,17.2,1.3,25.2,3.6l-116.4,77.6C414.1,436,452.9,400.5,500,400.5z M611.5,346.5c-30.9-23.7-69.5-37.9-111.5-37.9c-101.5,0-183.7,82.3-183.7,183.7c0,16.2,2.3,31.9,6.3,46.9L163.1,645.5l-8.3,5.6c-9.6-7.2-19-14.6-28.3-22.2c-37.8-30.8-75-64.6-106.3-102.5c-13.7-16.6-13.7-36.2,0-52.8c10.3-12.5,21.5-24.2,32.8-35.6c61.1-62,131.1-117.3,207.8-157.4c49-25.6,101.4-46.3,155.7-56.3c59.7-10.9,119.5-10.4,179,2.5c44.3,9.6,86.7,25.7,127.2,45.9l-8.4,5.3L611.5,346.5z"/></g>
</svg>