<?xml version="1.0" encoding="UTF-8"?>
<svg xmlns="http://www.w3.org/2000/svg" xmlns:xlink="http://www.w3.org/1999/xlink" width="128px" height="128px" viewBox="0 0 128 120" version="1.1">
<defs>
<filter id="alpha" filterUnits="objectBoundingBox" x="0%" y="0%" width="100%" height="100%">
  <feColorMatrix type="matrix" in="SourceGraphic" values="0 0 0 0 1 0 0 0 0 1 0 0 0 0 1 0 0 0 1 0"/>
</filter>
<mask id="mask0">
  <g filter="url(#alpha)">
<rect x="0" y="0" width="128" height="120" style="fill:rgb(0%,0%,0%);fill-opacity:0.901961;stroke:none;"/>
  </g>
</mask>
<clipPath id="clip2">
  <path d="M 53 32 L 80 32 L 80 69 L 53 69 Z M 53 32 "/>
</clipPath>
<clipPath id="clip3">
  <path d="M 47.550781 68.558594 L 61.753906 32.117188 L 82.359375 32.246094 L 69.960938 69.929688 Z M 47.550781 68.558594 "/>
</clipPath>
<clipPath id="clip4">
  <path d="M 52 32 L 80 32 L 80 70 L 52 70 Z M 52 32 "/>
</clipPath>
<clipPath id="clip5">
  <path d="M 47.550781 68.558594 L 61.753906 32.117188 L 82.359375 32.246094 L 69.960938 69.929688 Z M 47.550781 68.558594 "/>
</clipPath>
<clipPath id="clip1">
  <rect x="0" y="0" width="128" height="120"/>
</clipPath>
<g id="surface5" clip-path="url(#clip1)">
<g clip-path="url(#clip2)" clip-rule="nonzero">
<g clip-path="url(#clip3)" clip-rule="nonzero">
<path style=" stroke:none;fill-rule:nonzero;fill:rgb(100%,100%,100%);fill-opacity:1;" d="M 60.0625 59.96875 C 59.363281 59.933594 58.652344 60.023438 57.964844 60.210938 C 57.28125 60.402344 56.617188 60.691406 56.015625 61.058594 C 55.410156 61.425781 54.867188 61.875 54.414062 62.378906 C 53.964844 62.882812 53.605469 63.449219 53.378906 64.050781 C 53.148438 64.65625 53.074219 65.238281 53.128906 65.78125 C 53.1875 66.324219 53.382812 66.824219 53.691406 67.253906 C 54.003906 67.6875 54.4375 68.046875 54.964844 68.3125 C 55.5 68.578125 56.132812 68.746094 56.84375 68.789062 C 57.558594 68.832031 58.289062 68.746094 58.996094 68.554688 C 59.699219 68.363281 60.382812 68.0625 61 67.683594 C 61.617188 67.304688 62.171875 66.839844 62.625 66.316406 C 63.078125 65.796875 63.429688 65.21875 63.648438 64.605469 C 63.859375 63.992188 63.917969 63.402344 63.839844 62.863281 C 63.765625 62.324219 63.550781 61.832031 63.222656 61.414062 C 62.898438 60.996094 62.457031 60.652344 61.925781 60.402344 C 61.390625 60.152344 60.765625 60 60.0625 59.96875 M 71.246094 32.449219 C 70.171875 32.441406 69.078125 32.585938 68.003906 32.859375 C 66.933594 33.128906 65.878906 33.535156 64.871094 34.050781 C 63.867188 34.566406 62.910156 35.199219 62.039062 35.925781 C 61.164062 36.65625 60.375 37.480469 59.703125 38.386719 L 60.210938 38.921875 C 60.746094 38.53125 61.253906 38.203125 61.746094 37.925781 C 62.242188 37.652344 62.726562 37.429688 63.210938 37.261719 C 63.699219 37.089844 64.1875 36.972656 64.695312 36.894531 C 65.203125 36.816406 65.726562 36.785156 66.285156 36.792969 C 67.273438 36.804688 68.15625 36.988281 68.90625 37.308594 C 69.660156 37.632812 70.285156 38.089844 70.746094 38.660156 C 71.207031 39.226562 71.507812 39.90625 71.617188 40.660156 C 71.730469 41.414062 71.648438 42.246094 71.339844 43.121094 C 71.054688 43.9375 70.667969 44.667969 70.210938 45.332031 C 69.75 45.996094 69.21875 46.589844 68.648438 47.128906 C 68.074219 47.675781 67.460938 48.164062 66.835938 48.625 C 66.214844 49.082031 65.578125 49.507812 64.964844 49.921875 C 64.464844 50.257812 63.980469 50.582031 63.527344 50.90625 C 63.074219 51.230469 62.652344 51.558594 62.269531 51.894531 C 61.886719 52.234375 61.546875 52.582031 61.265625 52.957031 C 60.980469 53.332031 60.75 53.730469 60.589844 54.167969 C 60.511719 54.378906 60.445312 54.582031 60.394531 54.777344 C 60.34375 54.96875 60.304688 55.160156 60.28125 55.351562 C 60.253906 55.546875 60.242188 55.742188 60.238281 55.949219 C 60.238281 56.15625 60.246094 56.378906 60.265625 56.617188 L 61.160156 56.65625 C 61.464844 55.929688 61.839844 55.332031 62.273438 54.824219 C 62.707031 54.320312 63.199219 53.902344 63.738281 53.542969 C 64.277344 53.1875 64.863281 52.882812 65.484375 52.605469 C 66.105469 52.328125 66.761719 52.074219 67.441406 51.8125 C 67.796875 51.671875 68.164062 51.53125 68.542969 51.378906 C 68.921875 51.226562 69.308594 51.066406 69.699219 50.890625 C 70.09375 50.714844 70.492188 50.527344 70.894531 50.324219 C 71.296875 50.117188 71.699219 49.894531 72.101562 49.648438 C 72.90625 49.15625 73.675781 48.59375 74.390625 47.972656 C 75.101562 47.355469 75.765625 46.679688 76.355469 45.972656 C 76.949219 45.269531 77.46875 44.527344 77.90625 43.773438 C 78.339844 43.023438 78.691406 42.257812 78.941406 41.496094 C 79.347656 40.273438 79.414062 39.09375 79.199219 38.007812 C 78.984375 36.933594 78.492188 35.957031 77.777344 35.132812 C 77.066406 34.316406 76.128906 33.648438 75.023438 33.183594 C 73.921875 32.722656 72.648438 32.457031 71.246094 32.449219 "/>
</g>
</g>
<g clip-path="url(#clip4)" clip-rule="nonzero">
<g clip-path="url(#clip5)" clip-rule="nonzero">
<path style=" stroke:none;fill-rule:nonzero;fill:rgb(100%,100%,100%);fill-opacity:1;" d="M 56.84375 68.789062 C 56.132812 68.746094 55.5 68.578125 54.964844 68.3125 C 54.4375 68.046875 54.003906 67.6875 53.691406 67.253906 C 53.382812 66.824219 53.1875 66.324219 53.128906 65.78125 C 53.074219 65.238281 53.148438 64.65625 53.378906 64.050781 C 53.605469 63.449219 53.964844 62.882812 54.414062 62.378906 C 54.867188 61.875 55.410156 61.425781 56.015625 61.058594 C 56.617188 60.691406 57.28125 60.402344 57.964844 60.210938 C 58.652344 60.023438 59.363281 59.933594 60.0625 59.96875 C 60.765625 60 61.390625 60.152344 61.925781 60.402344 C 62.457031 60.652344 62.898438 60.996094 63.222656 61.414062 C 63.550781 61.832031 63.765625 62.324219 63.84375 62.863281 C 63.917969 63.402344 63.863281 63.992188 63.648438 64.605469 C 63.433594 65.21875 63.078125 65.796875 62.625 66.316406 C 62.171875 66.839844 61.617188 67.304688 61 67.683594 C 60.382812 68.0625 59.699219 68.363281 58.996094 68.554688 C 58.289062 68.746094 57.558594 68.832031 56.84375 68.789062 M 60.179688 59.648438 C 59.429688 59.613281 58.664062 59.710938 57.929688 59.914062 C 57.195312 60.117188 56.484375 60.425781 55.835938 60.820312 C 55.1875 61.214844 54.605469 61.695312 54.121094 62.234375 C 53.632812 62.777344 53.25 63.382812 53.003906 64.03125 C 52.757812 64.679688 52.675781 65.308594 52.738281 65.890625 C 52.796875 66.472656 53.003906 67.011719 53.339844 67.472656 C 53.671875 67.9375 54.136719 68.324219 54.707031 68.609375 C 55.277344 68.894531 55.957031 69.074219 56.722656 69.121094 C 57.492188 69.167969 58.277344 69.078125 59.035156 68.871094 C 59.792969 68.664062 60.523438 68.34375 61.191406 67.9375 C 61.855469 67.527344 62.449219 67.027344 62.9375 66.46875 C 63.421875 65.90625 63.800781 65.285156 64.03125 64.625 C 64.261719 63.96875 64.324219 63.335938 64.238281 62.753906 C 64.15625 62.175781 63.925781 61.648438 63.574219 61.199219 C 63.222656 60.75 62.75 60.382812 62.175781 60.113281 C 61.605469 59.847656 60.933594 59.683594 60.179688 59.648438 M 60.210938 38.921875 L 59.707031 38.390625 C 60.375 37.480469 61.167969 36.65625 62.039062 35.925781 C 62.910156 35.199219 63.867188 34.566406 64.871094 34.050781 C 65.878906 33.535156 66.933594 33.132812 68.003906 32.859375 C 69.078125 32.585938 70.171875 32.441406 71.246094 32.449219 C 72.648438 32.460938 73.921875 32.722656 75.023438 33.183594 C 76.128906 33.648438 77.066406 34.316406 77.777344 35.132812 C 78.492188 35.957031 78.984375 36.933594 79.199219 38.007812 C 79.414062 39.09375 79.347656 40.273438 78.941406 41.496094 C 78.691406 42.257812 78.339844 43.023438 77.90625 43.773438 C 77.46875 44.527344 76.949219 45.269531 76.355469 45.972656 C 75.765625 46.683594 75.101562 47.355469 74.390625 47.972656 C 73.675781 48.59375 72.90625 49.160156 72.101562 49.648438 C 71.699219 49.894531 71.296875 50.117188 70.894531 50.324219 C 70.492188 50.527344 70.09375 50.714844 69.699219 50.890625 C 69.308594 51.066406 68.921875 51.226562 68.542969 51.378906 C 68.164062 51.53125 67.796875 51.671875 67.441406 51.8125 C 66.761719 52.074219 66.105469 52.328125 65.484375 52.605469 C 64.863281 52.882812 64.277344 53.1875 63.738281 53.542969 C 63.199219 53.902344 62.707031 54.320312 62.273438 54.824219 C 61.839844 55.332031 61.464844 55.933594 61.160156 56.65625 L 60.265625 56.617188 C 60.246094 56.378906 60.238281 56.15625 60.238281 55.949219 C 60.242188 55.742188 60.253906 55.546875 60.28125 55.351562 C 60.304688 55.160156 60.34375 54.96875 60.394531 54.777344 C 60.445312 54.582031 60.511719 54.378906 60.589844 54.167969 C 60.75 53.730469 60.980469 53.332031 61.265625 52.957031 C 61.546875 52.582031 61.886719 52.234375 62.269531 51.894531 C 62.652344 51.558594 63.074219 51.230469 63.527344 50.90625 C 63.980469 50.582031 64.464844 50.257812 64.964844 49.921875 C 65.578125 49.507812 66.214844 49.082031 66.835938 48.625 C 67.460938 48.164062 68.074219 47.675781 68.648438 47.128906 C 69.21875 46.589844 69.75 45.996094 70.210938 45.332031 C 70.667969 44.667969 71.054688 43.9375 71.339844 43.121094 C 71.648438 42.246094 71.730469 41.414062 71.617188 40.660156 C 71.507812 39.90625 71.207031 39.230469 70.746094 38.660156 C 70.285156 38.089844 69.660156 37.632812 68.90625 37.308594 C 68.15625 36.988281 67.273438 36.804688 66.285156 36.792969 C 65.726562 36.785156 65.203125 36.816406 64.695312 36.894531 C 64.1875 36.972656 63.699219 37.089844 63.210938 37.261719 C 62.726562 37.433594 62.242188 37.652344 61.746094 37.925781 C 61.253906 38.203125 60.746094 38.53125 60.210938 38.921875 M 71.34375 32.175781 C 70.222656 32.167969 69.082031 32.320312 67.960938 32.605469 C 66.84375 32.890625 65.742188 33.3125 64.695312 33.855469 C 63.652344 34.394531 62.65625 35.054688 61.753906 35.816406 C 60.847656 36.578125 60.027344 37.441406 59.335938 38.390625 L 59.277344 38.472656 L 60.097656 39.34375 L 60.261719 39.21875 C 60.789062 38.824219 61.289062 38.492188 61.773438 38.214844 C 62.257812 37.9375 62.730469 37.714844 63.203125 37.542969 C 63.675781 37.371094 64.148438 37.25 64.640625 37.175781 C 65.132812 37.097656 65.640625 37.066406 66.183594 37.074219 C 67.121094 37.085938 67.960938 37.261719 68.675781 37.566406 C 69.390625 37.875 69.980469 38.3125 70.417969 38.855469 C 70.855469 39.398438 71.140625 40.046875 71.242188 40.765625 C 71.347656 41.488281 71.265625 42.28125 70.972656 43.113281 C 70.695312 43.902344 70.320312 44.609375 69.875 45.25 C 69.425781 45.890625 68.910156 46.46875 68.351562 46.996094 C 67.792969 47.523438 67.195312 48 66.585938 48.449219 C 65.976562 48.894531 65.359375 49.3125 64.757812 49.714844 C 64.265625 50.046875 63.777344 50.371094 63.3125 50.707031 C 62.847656 51.039062 62.40625 51.378906 62.003906 51.734375 C 61.601562 52.089844 61.242188 52.464844 60.9375 52.863281 C 60.636719 53.261719 60.386719 53.6875 60.214844 54.152344 C 60.128906 54.382812 60.058594 54.601562 60.007812 54.8125 C 59.953125 55.023438 59.910156 55.226562 59.886719 55.4375 C 59.859375 55.644531 59.847656 55.855469 59.847656 56.085938 C 59.847656 56.3125 59.863281 56.554688 59.886719 56.820312 L 59.894531 56.921875 L 61.410156 56.984375 L 61.46875 56.832031 C 61.753906 56.121094 62.101562 55.535156 62.507812 55.039062 C 62.910156 54.542969 63.375 54.140625 63.890625 53.792969 C 64.40625 53.445312 64.972656 53.148438 65.582031 52.875 C 66.191406 52.601562 66.847656 52.347656 67.539062 52.082031 C 67.902344 51.941406 68.277344 51.796875 68.660156 51.640625 C 69.046875 51.488281 69.4375 51.324219 69.839844 51.144531 C 70.238281 50.964844 70.648438 50.773438 71.058594 50.5625 C 71.46875 50.351562 71.882812 50.125 72.296875 49.871094 C 73.121094 49.367188 73.910156 48.789062 74.644531 48.152344 C 75.378906 47.515625 76.054688 46.824219 76.664062 46.097656 C 77.269531 45.371094 77.804688 44.613281 78.253906 43.839844 C 78.699219 43.066406 79.058594 42.28125 79.316406 41.503906 C 79.730469 40.242188 79.796875 39.019531 79.574219 37.902344 C 79.351562 36.796875 78.839844 35.789062 78.097656 34.9375 C 77.359375 34.097656 76.394531 33.40625 75.246094 32.929688 C 74.109375 32.457031 72.792969 32.1875 71.34375 32.175781 "/>
</g>
</g>
</g>
</defs>
<g id="surface1">
<path style=" stroke:none;fill-rule:nonzero;fill:rgb(100%,100%,100%);fill-opacity:1;" d="M 78.246094 90.023438 C 87.5 66.234375 96.796875 42.457031 105.984375 18.644531 C 106.390625 20.667969 106.285156 22.769531 106.734375 24.773438 C 107.933594 26.542969 108.878906 28.640625 110.699219 29.867188 C 102.28125 51.804688 94.027344 73.808594 85.671875 95.773438 C 84.921875 97.660156 84.316406 99.609375 83.414062 101.429688 C 80.632812 100.195312 78.480469 97.984375 76.226562 96.003906 C 75.460938 94.191406 75.246094 92.25 75.484375 90.300781 C 76.40625 90.246094 77.332031 90.15625 78.246094 90.023438 Z M 78.246094 90.023438 "/>
<path style=" stroke:none;fill-rule:nonzero;fill:rgb(100%,100%,100%);fill-opacity:1;" d="M 16.875 87.476562 C 21.5625 87.851562 26.261719 87.878906 30.949219 88.25 C 34.507812 88.203125 38.039062 88.726562 41.59375 88.691406 C 48.667969 89.179688 55.761719 89.324219 62.839844 89.820312 C 66.960938 89.824219 71.058594 90.339844 75.175781 90.3125 C 74.703125 92.316406 75.148438 94.3125 75.847656 96.199219 C 77.84375 97.984375 79.792969 99.851562 82.09375 101.261719 C 65.464844 99.980469 48.816406 99.003906 32.183594 97.820312 C 30.507812 97.632812 28.824219 97.789062 27.152344 97.628906 C 24.40625 96.371094 21.984375 94.496094 19.804688 92.425781 C 18.648438 90.894531 17.589844 89.265625 16.875 87.476562 Z M 16.875 87.476562 "/>
<path style=" stroke:none;fill-rule:nonzero;fill:rgb(66.666667%,0%,0%);fill-opacity:1;" d="M 85.976562 15.160156 C 93.230469 14.570312 100.453125 13.546875 107.71875 13.148438 C 107.320312 15.492188 106.011719 17.800781 106.683594 20.214844 C 107.023438 22.074219 106.847656 24.1875 108.082031 25.757812 C 108.753906 26.8125 109.460938 27.84375 110.144531 28.894531 C 111.171875 28.902344 112.203125 28.898438 113.234375 28.878906 C 103.878906 53.890625 94.714844 78.988281 85.324219 103.984375 C 71 103.023438 56.683594 101.847656 42.355469 100.847656 C 38.183594 100.441406 33.980469 100.367188 29.832031 99.726562 C 27.796875 99.515625 25.636719 99.300781 23.921875 98.0625 C 21.3125 96.300781 18.628906 94.410156 16.914062 91.707031 C 15.832031 90.160156 14.5 88.515625 14.808594 86.492188 C 23.753906 71.355469 32.554688 56.128906 41.441406 40.957031 C 45.957031 33.179688 50.546875 25.445312 55.015625 17.644531 C 56.394531 18.222656 57.863281 17.941406 59.300781 17.851562 C 68.1875 16.917969 77.089844 16.101562 85.976562 15.160156 Z M 78.246094 90.023438 C 77.332031 90.15625 76.40625 90.246094 75.484375 90.300781 C 75.246094 92.25 75.460938 94.191406 76.226562 96.003906 C 78.480469 97.984375 80.632812 100.195312 83.414062 101.429688 C 84.316406 99.609375 84.921875 97.660156 85.671875 95.773438 C 94.027344 73.808594 102.28125 51.804688 110.699219 29.867188 C 108.878906 28.640625 107.933594 26.542969 106.734375 24.773438 C 106.285156 22.769531 106.390625 20.667969 105.984375 18.644531 C 96.796875 42.457031 87.5 66.234375 78.246094 90.023438 Z M 55.011719 20.851562 C 54.449219 21.011719 54.007812 21.816406 54.316406 22.347656 C 54.960938 22.539062 55.671875 21.148438 55.011719 20.851562 Z M 53.445312 23.597656 C 52.882812 23.753906 52.449219 24.570312 52.746094 25.101562 C 53.390625 25.292969 54.101562 23.90625 53.445312 23.597656 Z M 51.871094 26.367188 C 51.320312 26.53125 50.871094 27.324219 51.179688 27.851562 C 51.832031 28.0625 52.546875 26.648438 51.871094 26.367188 Z M 49.894531 29.894531 C 49.339844 30.054688 48.898438 30.855469 49.195312 31.386719 C 49.839844 31.585938 50.570312 30.183594 49.894531 29.894531 Z M 48.332031 32.660156 C 47.773438 32.820312 47.335938 33.621094 47.628906 34.152344 C 48.273438 34.363281 49.003906 32.953125 48.332031 32.660156 Z M 46.753906 35.390625 C 46.203125 35.558594 45.769531 36.359375 46.070312 36.882812 C 46.726562 37.09375 47.425781 35.675781 46.753906 35.390625 Z M 45.195312 38.15625 C 44.632812 38.308594 44.191406 39.117188 44.492188 39.644531 C 45.140625 39.847656 45.855469 38.457031 45.195312 38.15625 Z M 43.222656 41.683594 C 42.664062 41.84375 42.230469 42.636719 42.519531 43.171875 C 43.164062 43.398438 43.886719 41.980469 43.222656 41.683594 Z M 41.636719 44.449219 C 41.078125 44.605469 40.640625 45.410156 40.953125 45.9375 C 41.597656 46.136719 42.3125 44.726562 41.636719 44.449219 Z M 40.0625 47.199219 C 39.507812 47.371094 39.078125 48.171875 39.382812 48.695312 C 40.03125 48.890625 40.746094 47.480469 40.0625 47.199219 Z M 38.511719 49.957031 C 37.953125 50.117188 37.511719 50.917969 37.820312 51.441406 C 38.472656 51.652344 39.1875 50.234375 38.511719 49.957031 Z M 36.527344 53.488281 C 35.96875 53.648438 35.515625 54.445312 35.832031 54.972656 C 36.476562 55.179688 37.195312 53.769531 36.527344 53.488281 Z M 34.957031 56.234375 C 34.398438 56.382812 33.949219 57.195312 34.253906 57.722656 C 34.902344 57.917969 35.625 56.535156 34.957031 56.234375 Z M 33.390625 58.996094 C 32.828125 59.15625 32.402344 59.960938 32.703125 60.488281 C 33.347656 60.703125 34.054688 59.285156 33.390625 58.996094 Z M 31.828125 61.746094 C 31.273438 61.902344 30.839844 62.699219 31.140625 63.222656 C 31.789062 63.445312 32.511719 62.027344 31.828125 61.746094 Z M 29.832031 65.285156 C 29.285156 65.460938 28.839844 66.257812 29.160156 66.78125 C 29.808594 66.976562 30.515625 65.558594 29.832031 65.285156 Z M 28.285156 68.03125 C 27.726562 68.191406 27.285156 68.996094 27.601562 69.523438 C 28.25 69.726562 28.953125 68.308594 28.285156 68.03125 Z M 26.703125 70.78125 C 26.148438 70.949219 25.703125 71.75 26.011719 72.277344 C 26.660156 72.476562 27.371094 71.074219 26.703125 70.78125 Z M 25.148438 73.539062 C 24.585938 73.6875 24.140625 74.5 24.457031 75.019531 C 25.101562 75.21875 25.8125 73.828125 25.148438 73.539062 Z M 23.15625 77.089844 C 22.601562 77.246094 22.15625 78.046875 22.46875 78.566406 C 23.121094 78.78125 23.832031 77.371094 23.15625 77.089844 Z M 21.585938 79.820312 C 21.035156 79.984375 20.601562 80.789062 20.910156 81.3125 C 21.558594 81.519531 22.269531 80.101562 21.585938 79.820312 Z M 20.011719 82.589844 C 19.460938 82.757812 19.027344 83.558594 19.335938 84.085938 C 19.992188 84.285156 20.6875 82.867188 20.011719 82.589844 Z M 16.875 87.476562 C 17.589844 89.265625 18.648438 90.894531 19.804688 92.425781 C 21.984375 94.496094 24.40625 96.371094 27.152344 97.628906 C 28.824219 97.789062 30.507812 97.632812 32.183594 97.820312 C 48.816406 99.003906 65.464844 99.980469 82.09375 101.261719 C 79.792969 99.855469 77.84375 97.988281 75.847656 96.203125 C 75.148438 94.3125 74.703125 92.316406 75.175781 90.3125 C 71.054688 90.339844 66.960938 89.824219 62.839844 89.820312 C 55.761719 89.324219 48.667969 89.179688 41.59375 88.691406 C 38.039062 88.726562 34.507812 88.203125 30.949219 88.25 C 26.261719 87.878906 21.558594 87.851562 16.875 87.476562 Z M 16.875 87.476562 "/>
<path style=" stroke:none;fill-rule:nonzero;fill:rgb(66.666667%,0%,0%);fill-opacity:1;" d="M 55.011719 20.851562 C 55.671875 21.148438 54.960938 22.539062 54.316406 22.347656 C 54.007812 21.816406 54.449219 21.011719 55.011719 20.851562 Z M 53.445312 23.597656 C 54.101562 23.90625 53.390625 25.292969 52.746094 25.101562 C 52.449219 24.570312 52.882812 23.753906 53.445312 23.597656 Z M 51.871094 26.367188 C 52.546875 26.648438 51.832031 28.0625 51.179688 27.851562 C 50.871094 27.324219 51.320312 26.53125 51.871094 26.367188 Z M 49.894531 29.894531 C 50.570312 30.183594 49.839844 31.585938 49.195312 31.386719 C 48.898438 30.855469 49.339844 30.054688 49.894531 29.894531 Z M 48.332031 32.660156 C 49.003906 32.953125 48.273438 34.363281 47.628906 34.152344 C 47.335938 33.621094 47.773438 32.820312 48.332031 32.660156 Z M 46.753906 35.390625 C 47.425781 35.675781 46.726562 37.09375 46.070312 36.882812 C 45.769531 36.359375 46.203125 35.558594 46.753906 35.390625 Z M 45.195312 38.15625 C 45.855469 38.457031 45.140625 39.847656 44.492188 39.644531 C 44.191406 39.117188 44.632812 38.308594 45.195312 38.15625 Z M 43.222656 41.683594 C 43.890625 41.980469 43.164062 43.398438 42.519531 43.171875 C 42.230469 42.636719 42.664062 41.84375 43.222656 41.683594 Z M 41.636719 44.449219 C 42.3125 44.726562 41.597656 46.136719 40.953125 45.9375 C 40.640625 45.410156 41.078125 44.605469 41.636719 44.449219 Z M 40.0625 47.199219 C 40.746094 47.480469 40.03125 48.890625 39.382812 48.695312 C 39.078125 48.171875 39.507812 47.371094 40.0625 47.199219 Z M 38.511719 49.957031 C 39.1875 50.234375 38.472656 51.652344 37.820312 51.441406 C 37.511719 50.917969 37.953125 50.117188 38.511719 49.957031 Z M 36.527344 53.488281 C 37.195312 53.769531 36.476562 55.175781 35.832031 54.972656 C 35.515625 54.445312 35.96875 53.648438 36.527344 53.488281 Z M 34.957031 56.234375 C 35.625 56.535156 34.902344 57.917969 34.253906 57.722656 C 33.949219 57.195312 34.398438 56.382812 34.957031 56.234375 Z M 33.390625 58.996094 C 34.054688 59.285156 33.347656 60.703125 32.703125 60.488281 C 32.402344 59.960938 32.828125 59.15625 33.390625 58.996094 Z M 31.828125 61.746094 C 32.511719 62.027344 31.789062 63.445312 31.140625 63.222656 C 30.839844 62.699219 31.273438 61.902344 31.828125 61.746094 Z M 29.832031 65.285156 C 30.515625 65.558594 29.808594 66.976562 29.160156 66.78125 C 28.839844 66.257812 29.285156 65.460938 29.832031 65.285156 Z M 28.285156 68.03125 C 28.953125 68.308594 28.25 69.726562 27.601562 69.523438 C 27.285156 68.996094 27.726562 68.191406 28.285156 68.03125 Z M 26.703125 70.78125 C 27.371094 71.074219 26.660156 72.476562 26.011719 72.277344 C 25.703125 71.75 26.148438 70.949219 26.703125 70.78125 Z M 25.148438 73.539062 C 25.8125 73.828125 25.101562 75.21875 24.457031 75.019531 C 24.140625 74.5 24.585938 73.6875 25.148438 73.539062 Z M 23.15625 77.089844 C 23.832031 77.371094 23.121094 78.78125 22.46875 78.566406 C 22.15625 78.046875 22.601562 77.246094 23.15625 77.089844 Z M 21.585938 79.820312 C 22.269531 80.101562 21.558594 81.519531 20.910156 81.3125 C 20.601562 80.789062 21.035156 79.984375 21.585938 79.820312 Z M 20.011719 82.589844 C 20.6875 82.867188 19.992188 84.285156 19.335938 84.085938 C 19.027344 83.558594 19.460938 82.757812 20.011719 82.589844 Z M 20.011719 82.589844 "/>
<use xlink:href="#surface5" mask="url(#mask0)"/>
<path style=" stroke:none;fill-rule:evenodd;fill:rgb(87.058824%,52.941176%,0%);fill-opacity:1;" d="M 31.878906 91.277344 C 29.40625 95.542969 31.132812 101.660156 26.324219 104.722656 L 28.597656 104.589844 L 28.339844 106.667969 C 32.664062 104.066406 33.433594 97.0625 34.765625 91.605469 Z M 31.878906 91.277344 "/>
</g>
</svg>
